<svg xmlns:dc="http://purl.org/dc/elements/1.1/" xmlns:cc="http://creativecommons.org/ns#" xmlns:rdf="http://www.w3.org/1999/02/22-rdf-syntax-ns#" xmlns:svg="http://www.w3.org/2000/svg" xmlns="http://www.w3.org/2000/svg" xmlns:xlink="http://www.w3.org/1999/xlink" id="svg698469" viewBox="0 0 1024 768" height="768px" width="1024px" version="1.1">
  <metadata id="metadata698475">
    <rdf:rdf>
      <cc:work rdf:about="">
        <dc:format>image/svg+xml</dc:format>
        <dc:type rdf:resource="http://purl.org/dc/dcmitype/StillImage"></dc:type>
      </cc:work>
    </rdf:rdf>
  </metadata>
  <defs id="defs698473"></defs>
  <linearGradient spreadMethod="pad" y2="30%" x2="-10%" y1="120%" x1="30%" id="3d_gradient2-logo-10c5055b-d786-44c5-9c2e-41c9760f5eda">
    <stop id="stop698450" stop-opacity="1" stop-color="#ffffff" offset="0%"></stop>
    <stop id="stop698452" stop-opacity="1" stop-color="#000000" offset="100%"></stop>
  </linearGradient>
  <linearGradient gradientTransform="rotate(-30)" spreadMethod="pad" y2="30%" x2="-10%" y1="120%" x1="30%" id="3d_gradient3-logo-10c5055b-d786-44c5-9c2e-41c9760f5eda">
    <stop id="stop698455" stop-opacity="1" stop-color="#ffffff" offset="0%"></stop>
    <stop id="stop698457" stop-opacity="1" stop-color="#cccccc" offset="50%"></stop>
    <stop id="stop698459" stop-opacity="1" stop-color="#000000" offset="100%"></stop>
  </linearGradient>
  <g id="logo-group">
    <image xlink:href="" id="container" x="272" y="144" width="480" height="480" style="display: none;" transform="translate(0 0)"></image>
    <g id="logo-center" transform="translate(5.684341886080802e-14 0)">
      <image xlink:href="" id="icon_container" x="0" y="0" style="display: none;"></image>
      <g id="slogan" style="font-style:normal;font-weight:700;font-size:32px;line-height:1;font-family:Nunito;font-variant-ligatures:none;text-align:center;text-anchor:middle" transform="translate(0 0)"></g>
      <g id="title" style="font-style:normal;font-weight:normal;font-size:72px;line-height:1;font-family:'Brandmark Sans 17 Outline';font-variant-ligatures:normal;text-align:center;text-anchor:middle" transform="translate(0 0)">
        <path id="path698478" style="font-style:normal;font-weight:normal;font-size:72px;line-height:1;font-family:'Brandmark Sans 17 Outline';font-variant-ligatures:normal;text-align:center;text-anchor:middle" d="m 420.245,4.68 h 14.76 v -18.864 h 9.576 V 1.08 l 3.6,3.6 h 14.76 v -52.56 l -3.6,-3.6 h -14.76 v 18.936 h -9.576 V -47.88 l -3.6,-3.6 h -14.76 V 1.08 Z M 417.725,0 v -50.4 h 12.6 v 18.936 h 15.336 V -50.4 h 12.6 V 0 h -12.6 v -18.864 l -15.336,-0.072 V 0 Z" stroke-width="0" stroke-linejoin="miter" stroke-miterlimit="2" fill="#453264" stroke="#453264" transform="translate(0 328.24) translate(302.23850000000004 6.584000000000003) scale(2) translate(-416.645 51.48)"></path>
        <path id="path698480" style="font-style:normal;font-weight:normal;font-size:72px;line-height:1;font-family:'Brandmark Sans 17 Outline';font-variant-ligatures:normal;text-align:center;text-anchor:middle" d="m 467.70087,4.68 h 14.25601 v -42.768 l -3.60001,-2.376 c 2.736,-1.296 4.608,-4.104 4.608,-7.344 0,-3.168 -1.8,-5.904 -4.464,-7.272 -1.36799,-2.664 -4.10399,-4.464 -7.27199,-4.464 -4.464,0 -8.13601,3.672 -8.13601,8.136 0,3.168 1.8,5.904 4.464,7.272 0.504,0.936 1.152,1.728 1.872,2.448 h -5.328 V 1.08 Z m 3.52801,-49.032 c -3.88801,0 -7.05601,-3.168 -7.05601,-7.056 0,-3.888 3.168,-7.056 7.05601,-7.056 3.88799,0 7.05599,3.168 7.05599,7.056 0,3.888 -3.168,7.056 -7.05599,7.056 z M 465.18088,0 v -40.608 h 12.096 V 0 Z" stroke-width="0" stroke-linejoin="miter" stroke-miterlimit="2" fill="#6b396d" stroke="#6b396d" transform="translate(0 328.24) translate(401.1342400000001 -9.543999999999997) scale(2) translate(-463.09287 59.544)"></path>
        <path id="path698482" style="font-style:normal;font-weight:normal;font-size:72px;line-height:1;font-family:'Brandmark Sans 17 Outline';font-variant-ligatures:normal;text-align:center;text-anchor:middle" d="m 486.76062,4.68 h 16.2 c 14.54401,0 26.28001,-11.736 26.28001,-26.28 0,-8.136 -3.74401,-15.48 -9.57601,-20.304 -4.82399,-5.832 -12.168,-9.576 -20.30399,-9.576 H 483.16062 V 1.08 Z M 484.24063,0 v -50.4 h 15.12 c 13.89599,0 25.19999,11.304 25.19999,25.2 0,13.896 -11.304,25.2 -25.19999,25.2 z m 12.59999,-12.6 h 2.52001 c 6.98399,0 12.59999,-5.616 12.59999,-12.6 0,-6.984 -5.616,-12.6 -12.59999,-12.6 h -2.52001 z m 4.68,-1.296 V -33.12 h 1.44 c 2.23201,0 4.392,0.648 6.12,1.8 1.152,1.728 1.8,3.888 1.8,6.12 0,5.616 -4.032,10.296 -9.36,11.304 z" stroke-width="0" stroke-linejoin="miter" stroke-miterlimit="2" fill="#913f76" stroke="#913f76" transform="translate(0 328.24) translate(447.26974000000007 6.584000000000003) scale(2) translate(-483.16062 51.48)"></path>
        <path id="path698484" style="font-style:normal;font-weight:normal;font-size:72px;line-height:1;font-family:'Brandmark Sans 17 Outline';font-variant-ligatures:normal;text-align:center;text-anchor:middle" d="m 552.7025,5.76 c 9.648,0 18.36,-6.264 21.384,-15.552 l -4.392,-1.584 h 4.824 c 0.504,-1.728 0.72,-3.528 0.72,-5.4 0,-1.512 -0.144,-3.024 -0.432,-4.392 -1.08,-5.4 -4.032,-10.008 -8.064,-13.248 -4.176,-5.256 -10.584,-8.496 -17.64,-8.496 -12.456,0 -22.536,10.08 -22.536,22.536 0,7.128 3.312,13.464 8.496,17.64 4.104,5.112 10.512,8.496 17.64,8.496 z m -3.6,-4.68 c -11.88,0 -21.456,-9.648 -21.456,-21.456 0,-11.88 9.576,-21.456 21.456,-21.456 10.368,0 19.08,7.416 21.024,17.208 0.288,1.368 0.432,2.808 0.432,4.248 0,1.512 -0.144,2.952 -0.432,4.32 h -29.304 c 1.584,3.024 4.68,5.04 8.28,5.04 1.728,0 3.312,-0.504 4.752,-1.296 h 15.12 c -3.168,7.848 -10.872,13.392 -19.872,13.392 z m -8.352,-25.704 h 16.704 c -1.512,-3.024 -4.68,-5.112 -8.352,-5.112 -3.672,0 -6.84,2.088 -8.352,5.112 z" stroke-width="0" stroke-linejoin="miter" stroke-miterlimit="2" fill="#b7467f" stroke="#b7467f" transform="translate(0 328.24) translate(540.0815000000001 23.72) scale(2) translate(-526.5665 42.912)"></path>
        <path id="path698486" style="font-style:normal;font-weight:normal;font-size:72px;line-height:1;font-family:'Brandmark Sans 17 Outline';font-variant-ligatures:normal;text-align:center;text-anchor:middle" d="m 585.5345,4.68 h 16.992 l 11.88,-42.768 -3.6,-3.6 h -14.328 l -4.68,18.504 -3.744,-14.904 -3.6,-3.6 h -14.4 l 11.88,42.768 z M 582.7265,0 571.4945,-40.608 h 12.096 l 6.84,27.144 6.84,-27.144 h 12.096 L 598.1345,0 Z" stroke-width="0" stroke-linejoin="miter" stroke-miterlimit="2" fill="#dd4c88" stroke="#dd4c88" transform="translate(0 328.24) translate(633.0574999999999 26.167999999999992) scale(2) translate(-570.0545 41.688)"></path>
      </g>
      <image xlink:href="" id="icon" x="0" y="0" style="display: none;"></image>
    </g>
  </g>
</svg>